<svg width="100" height="100" viewBox="0 0 100 100" fill="none" xmlns="http://www.w3.org/2000/svg">
<rect width="100" height="100" rx="30" fill="#F2F2F2"/>
<path d="M80.8456 50.6159C84.8767 65.3967 58.0025 81.0734 49.4923 81.9692C40.9822 82.865 11.4206 64.053 20.8265 50.6159C30.2325 37.1788 22.6181 12.0963 49.4923 19.2627C76.3665 26.4292 76.8145 35.8351 80.8456 50.6159Z" fill="url(#paint0_linear_2011_10)"/>
<path d="M76.3665 50.616C67.4084 69.4279 59.3461 81.9692 49.4923 77.4901C39.6384 73.0111 18.1391 64.053 22.6181 50.616C27.0971 37.1789 34.6501 23.7418 49.4923 23.7418C64.3345 23.7418 85.3245 31.804 76.3665 50.616Z" fill="url(#paint1_linear_2011_10)"/>
<path d="M71.8877 50.6159C84.877 60.0219 63.8253 68.5321 49.4926 67.1883C35.1599 65.8446 27.0975 59.1261 27.0974 50.6159C27.0973 42.1058 40.5345 28.2208 49.4926 28.2208C58.4506 28.2208 58.8985 41.21 71.8877 50.6159Z" fill="url(#paint2_linear_2011_10)"/>
<defs>
<linearGradient id="paint0_linear_2011_10" x1="19.9307" y1="40.7621" x2="80.8456" y2="58.2303" gradientUnits="userSpaceOnUse">
<stop stop-color="#4257A2"/>
<stop offset="1" stop-color="#9D2FB9"/>
</linearGradient>
<linearGradient id="paint1_linear_2011_10" x1="23.4538" y1="42.8578" x2="77.5611" y2="59.447" gradientUnits="userSpaceOnUse">
<stop stop-color="#4764C9"/>
<stop offset="1" stop-color="#B233D2"/>
</linearGradient>
<linearGradient id="paint2_linear_2011_10" x1="27.8278" y1="44.1821" x2="74.7312" y2="59.2344" gradientUnits="userSpaceOnUse">
<stop stop-color="#5E7CE4"/>
<stop offset="1" stop-color="#CA3EED"/>
</linearGradient>
</defs>
</svg>
